Coordinates
version=1
nRows=16
nColumns=32
inDegrees=yes

Units are S.I. units (second, meters, Newtons, ...)
If the header above contains a line with 'inDegrees', this indicates whether rotational values are in degrees (yes) or radians (no).

endheader
time	pelvis_tilt	pelvis_list	pelvis_rotation	pelvis_tx	pelvis_ty	pelvis_tz	hip_flexion_r	hip_adduction_r	hip_rotation_r	knee_angle_r	knee_adduction_r	med_cond_adduction_r	lat_cond_adduction_r	patella_r_constrained_knee_angle	ankle_angle_r	subtalar_angle_r	mtp_angle_r	hip_flexion_l	hip_adduction_l	hip_rotation_l	knee_angle_l	knee_adduction_l	med_cond_adduction_l	lat_cond_adduction_l	patella_l_constrained_knee_angle	ankle_angle_l	subtalar_angle_l	mtp_angle_l	lumbar_extension	lumbar_bending	lumbar_rotation
      1.85000000	      4.36321717	     -1.97308731	     -9.68721191	      1.81599382	      0.91299082	      0.25549030	    -23.84707854	     -4.17621832	     -5.07387401	    -17.51871352	      1.44458266	     -0.00000000	     -0.00000000	     -0.30575923	     -8.44623595	      5.65342517	     -0.00000000	     21.09159832	     -9.44617396	    -24.00365622	    -17.26787587	      1.57204755	      0.00000000	      0.00000000	     -0.30138129	     -7.64257812	      4.95571601	      0.00000000	     -6.05455084	      0.96128793	      2.89781116
      1.85500000	      4.48013498	     -1.83869873	     -9.78540332	      1.82372357	      0.91343196	      0.25549759	    -23.44709884	     -4.31733115	     -5.08505279	    -18.95518408	      1.04555913	     -0.00000000	     -0.00000000	     -0.33083037	     -9.89526753	      5.29023493	     -0.00000000	     20.92536017	     -9.51035326	    -23.77043477	    -18.25613329	      1.78846945	      0.00000000	      0.00000000	     -0.31862963	     -7.71782871	      4.41707908	      0.00000000	     -6.05056639	      0.64589489	      3.15913959
      1.86000000	      4.61962913	     -1.16992539	     -9.80964592	      1.83171279	      0.91365585	      0.25515760	    -22.84494996	     -5.21925864	     -5.73249347	    -20.82784400	      0.87676871	      0.00000000	      0.00000000	     -0.36351445	    -11.02989461	      5.42393866	      0.00000000	     20.74183229	     -8.76284962	    -23.67829393	    -18.96775218	      1.68668580	      0.00000000	      0.00000000	     -0.33104973	     -7.84865913	      3.92517991	      0.00000000	     -5.94563154	     -0.05913422	      3.72067359
      1.86500000	      4.71587052	     -0.69858105	     -9.82854376	      1.83955976	      0.91393757	      0.25484863	    -22.17095213	     -5.84303929	     -6.22954393	    -22.69386888	      0.60711455	     -0.00000000	     -0.00000000	     -0.39608273	    -12.34922046	      5.33637198	      0.00000000	     20.57023179	     -8.26663230	    -23.41233398	    -19.68891614	      1.73210893	     -0.00000000	     -0.00000000	     -0.34363641	     -7.86826139	      3.29001795	      0.00000000	     -5.83433629	     -0.66943194	      3.99462003
      1.87000000	      4.73316061	     -0.39816597	     -9.84129949	      1.84736077	      0.91411910	      0.25452182	    -21.38831736	     -6.24400411	     -6.58799318	    -24.57791431	      0.29249285	     -0.00000000	     -0.00000000	     -0.42896553	    -13.80879263	      4.97715970	      0.00000000	     20.50485700	     -8.01456876	    -23.15742092	    -20.54992411	      1.82334652	      0.00000000	      0.00000000	     -0.35866384	     -7.67518225	      2.92095293	     -0.00000000	     -5.64767862	     -1.01235763	      4.34298636
      1.87500000	      4.75770519	      0.05295524	     -9.86122579	      1.85520596	      0.91423983	      0.25417198	    -20.50134793	     -6.88024541	     -7.07389952	    -26.63513053	      0.03504828	     -0.00000000	     -0.00000000	     -0.46487072	    -15.16376847	      4.72836256	      0.00000000	     20.40569721	     -7.53760739	    -22.98108119	    -21.29469634	      1.85446665	     -0.00000000	     -0.00000000	     -0.37166256	     -7.46708872	      2.40307503	     -0.00000000	     -5.44299056	     -1.52695189	      4.67704560
      1.88000000	      4.75233164	      0.53869206	     -9.86544235	      1.86303603	      0.91428856	      0.25370159	    -19.51699666	     -7.57985625	     -7.60492237	    -28.77711961	     -0.20968821	      0.00000000	      0.00000000	     -0.50225549	    -16.52529958	      4.38540510	      0.00000000	     20.32515901	     -6.97173984	    -22.82180668	    -21.97842147	      1.83521085	     -0.00000000	     -0.00000000	     -0.38359582	     -7.17801733	      1.99870849	      0.00000000	     -5.18524548	     -2.05890727	      4.98792369
      1.88500000	      4.76415741	      1.05383478	    -10.05470480	      1.87076805	      0.91437977	      0.25378765	    -18.43617793	     -8.35530511	     -7.96067588	    -31.00461057	     -0.46568982	      0.00000000	      0.00000000	     -0.54113254	    -17.97015822	      3.83318758	     -0.00000000	     20.12943028	     -6.49497434	    -22.90660683	    -22.57810568	      1.91692007	      0.00000000	      0.00000000	     -0.39406228	     -6.83119411	      1.61709264	      0.00000000	     -4.93790399	     -2.59641561	      5.60608811
      1.89000000	      4.71349835	      1.76719334	     -9.97843167	      1.87862694	      0.91421262	      0.25302757	    -17.25963714	     -9.39327255	     -8.73296908	    -33.35499780	     -0.67720946	     -0.00000000	     -0.00000000	     -0.58215453	    -19.20378007	      3.57845246	     -0.00000000	     20.04268142	     -5.49738006	    -22.66802331	    -22.96039231	      1.76380852	     -0.00000000	     -0.00000000	     -0.40073444	     -6.51277959	      1.00904718	     -0.00000000	     -4.56266406	     -3.38394425	      5.79481416
      1.89500000	      4.64777079	      2.50421843	    -10.00682025	      1.88638284	      0.91400183	      0.25253214	    -15.98482112	    -10.50561681	     -9.35466000	    -35.76275134	     -0.86275122	      0.00000000	      0.00000000	     -0.62417776	    -20.47160366	      3.09090190	     -0.00000000	     19.93975578	     -4.56392156	    -22.68111117	    -23.32963481	      1.64455691	      0.00000000	      0.00000000	     -0.40717894	     -6.15925095	      0.58462556	     -0.00000000	     -4.16640293	     -4.15960511	      6.17533832
      1.90000000	      4.60339254	      3.33276835	    -10.15190286	      1.89413691	      0.91380009	      0.25227635	    -14.66801380	    -11.76072385	     -9.83373100	    -38.17777117	     -1.04260983	      0.00000000	      0.00000000	     -0.66632781	    -21.66699662	      2.50119736	      0.00000000	     19.75333752	     -3.53392818	    -22.88155568	    -23.57263410	      1.47857976	     -0.00000000	     -0.00000000	     -0.41142008	     -5.77549190	      0.21936756	     -0.00000000	     -3.75468643	     -5.02804597	      6.70355211
      1.90500000	      4.55931706	      4.12715184	    -10.24479595	      1.90184034	      0.91359647	      0.25187973	    -13.35975565	    -12.97965515	    -10.25284330	    -40.53850449	     -1.18160224	     -0.00000000	     -0.00000000	     -0.70753038	    -22.85687444	      1.73690684	     -0.00000000	     19.54316426	     -2.51310596	    -23.02340068	    -23.75973637	      1.35884380	     -0.00000000	     -0.00000000	     -0.41468563	     -5.30498352	     -0.20736070	      0.00000000	     -3.37120441	     -5.83142584	      7.22132446
      1.91000000	      4.49402568	      4.72631483	    -10.35690371	      1.90938484	      0.91352106	      0.25147703	    -12.04718728	    -13.89982754	    -10.46698844	    -42.76920296	     -1.41478330	      0.00000000	      0.00000000	     -0.74646341	    -24.02378225	      0.90546732	     -0.00000000	     19.33412888	     -1.69484956	    -23.15811560	    -23.93627681	      1.17163696	      0.00000000	      0.00000000	     -0.41776684	     -4.90269603	     -0.44252168	      0.00000000	     -2.98708736	     -6.48080953	      7.51262977
      1.91500000	      4.42354833	      5.81772180	    -10.54372861	      1.91705079	      0.91312857	      0.25109130	    -10.55829125	    -15.56243036	    -10.73920855	    -45.20966037	     -1.45436965	     -0.00000000	     -0.00000000	     -0.78905743	    -24.88716352	      0.33021592	     -0.00000000	     19.11671241	     -0.26025492	    -23.56452166	    -23.82777432	      0.83593376	      0.00000000	      0.00000000	     -0.41587312	     -4.53555885	     -0.68126309	     -0.00000000	     -2.45795714	     -7.59593738	      8.13394981
      1.92000000	      4.44380577	      6.41770497	    -10.69644784	      1.92450500	      0.91326147	      0.25075952	     -9.32042907	    -16.48793666	    -10.79180004	    -47.28747235	     -1.64003438	      0.00000000	      0.00000000	     -0.82532209	    -25.88735343	     -0.73766146	      0.00000000	     18.74021387	      0.57696114	    -23.78238576	    -23.83866318	      0.70656555	     -0.00000000	     -0.00000000	     -0.41606316	     -4.11963058	     -0.98215753	      0.00000000	     -2.17156115	     -8.24208107	      8.48051389
      1.92500000	      4.39618390	      7.32047744	    -10.82766906	      1.93208511	      0.91306391	      0.25018274	     -7.92101488	    -17.86511241	    -10.83342706	    -49.48241136	     -1.66667587	     -0.00000000	     -0.00000000	     -0.86363100	    -26.52241285	     -1.44550075	      0.00000000	     18.46315702	      1.85084813	    -24.13484899	    -23.67933796	      0.35247488	     -0.00000000	     -0.00000000	     -0.41328241	     -3.73932177	     -1.08019599	      0.00000000	     -1.71634800	     -9.11203164	      8.97552315
